<?xml version="1.0" encoding="UTF-8" standalone="no"?>
<svg
   viewBox="0 0 145.14852 30.389901"
   version="1.1"
   id="svg16"
   sodipodi:docname="innovare-logo.svg"
   width="145.14853"
   height="30.389902"
   inkscape:version="1.2.2 (b0a8486541, 2022-12-01)"
   inkscape:export-filename="innovare-logo.png"
   inkscape:export-xdpi="220"
   inkscape:export-ydpi="220"
   xmlns:inkscape="http://www.inkscape.org/namespaces/inkscape"
   xmlns:sodipodi="http://sodipodi.sourceforge.net/DTD/sodipodi-0.dtd"
   xmlns="http://www.w3.org/2000/svg"
   xmlns:svg="http://www.w3.org/2000/svg">
  <sodipodi:namedview
     id="namedview18"
     pagecolor="#505050"
     bordercolor="#ffffff"
     borderopacity="1"
     inkscape:showpageshadow="0"
     inkscape:pageopacity="0"
     inkscape:pagecheckerboard="1"
     inkscape:deskcolor="#505050"
     showgrid="false"
     inkscape:zoom="3.3579965"
     inkscape:cx="79.362799"
     inkscape:cy="25.759408"
     inkscape:window-width="1300"
     inkscape:window-height="707"
     inkscape:window-x="0"
     inkscape:window-y="0"
     inkscape:window-maximized="1"
     inkscape:current-layer="svg16" />
  <defs
     id="defs4">
    <rect
       x="67.682426"
       y="21.338989"
       width="114.38996"
       height="39.157928"
       id="rect232" />
    <style
       id="style2">.cls-1{fill:#fff;stroke:#e00505;stroke-miterlimit:10;stroke-width:3px}.cls-2{fill:#d10909}</style>
  </defs>
  <g
     id="Capa_7"
     data-name="Capa 7"
     transform="scale(0.19217087)">
    <circle
       class="cls-1"
       cx="79.07"
       cy="79.07"
       r="77.57"
       id="circle6" />
    <circle
       class="cls-1"
       cx="79.07"
       cy="79.07"
       r="75.300003"
       id="circle8" />
  </g>
  <g
     id="Capa_6"
     data-name="Capa 6"
     transform="scale(0.19217087)">
    <path
       class="cls-2"
       d="m 76.94,37.08 h 3.77 v 89.98 h -3.77 z m 9.36,44.98 h 47.22 v 3.77 H 86.3 Z m 0,8.87 h 47.22 V 94.7 H 86.3 Z m 0,8.93 h 47.22 v 3.77 H 86.3 Z"
       id="path11" />
    <path
       class="cls-2"
       d="M 141,69.92 H 102.66 V 90.31 H 141 Z M 137.28,87.2 H 105.56 V 73.65 h 31.72 z m -58.34,26.05 a 6.64,6.64 0 0 0 -1.42,0.15 l -4.66,-6.65 a 6.76,6.76 0 0 0 -5.27,-11 6.52,6.52 0 0 0 -2.18,0.37 l -5.18,-7.39 a 6.73,6.73 0 0 0 0,-8.93 l 4.53,-6.86 a 6.67,6.67 0 0 0 2.58,0.51 6.85,6.85 0 0 0 1.71,-0.23 l 4.76,6.24 a 6.76,6.76 0 1 0 4.76,-2 7.15,7.15 0 0 0 -1.4,0.14 L 72.31,71.22 A 6.76,6.76 0 1 0 61.8,70.53 l -4.75,7.2 A 6.59,6.59 0 0 0 55.16,77.46 6.76,6.76 0 0 0 50,88.58 l -4.6,7 a 6.55,6.55 0 0 0 -1.4,-0.17 6.78,6.78 0 1 0 4.74,1.94 l 4.39,-6.66 a 6.58,6.58 0 0 0 2.09,0.33 6.81,6.81 0 0 0 1.78,-0.26 l 5.27,7.52 a 6.74,6.74 0 0 0 -0.11,8.31 l -4.6,7 a 6.61,6.61 0 0 0 -2.05,-0.32 6.78,6.78 0 1 0 5.18,2.42 l 4.5,-6.82 a 6.71,6.71 0 0 0 4.53,0.07 l 4.42,6.29 a 6.77,6.77 0 1 0 4.76,-2 z m -0.36,-31.8 a 2.81,2.81 0 1 1 -2.81,2.81 2.81,2.81 0 0 1 2.81,-2.81 z M 67.35,63.88 a 2.81,2.81 0 0 1 0,5.61 2.67,2.67 0 0 1 -0.64,-0.08 L 65.1,68.35 a 2.77,2.77 0 0 1 -0.56,-1.67 2.8,2.8 0 0 1 2.81,-2.8 z M 44,105 A 2.81,2.81 0 1 1 46.81,102.19 2.8,2.8 0 0 1 44,105 Z M 55.17,87.07 A 2.81,2.81 0 1 1 58,84.26 2.81,2.81 0 0 1 55.17,87.07 Z m 0.38,35.75 a 2.81,2.81 0 1 1 2.81,-2.82 2.8,2.8 0 0 1 -2.81,2.82 z m 12,-17.5 a 2.81,2.81 0 1 1 2.81,-2.8 2.8,2.8 0 0 1 -2.77,2.8 z m 11.35,17.5 a 2.81,2.81 0 1 1 2.85,-2.82 2.81,2.81 0 0 1 -2.81,2.82 z"
       transform="translate(-12.85,-14.11)"
       id="path13" />
  </g>
  <g
     aria-label="Innovare Software"
     transform="matrix(1.0437011,0,0,1.0437011,-36.33196,-13.813804)"
     id="text230"
     style="font-size:12px;font-family:Quicksand;-inkscape-font-specification:'Quicksand, @wght=600';font-variation-settings:'wght' 600;white-space:pre;shape-inside:url(#rect232);display:inline">
    <path
       d="m 69.913641,31.827844 q -0.012,0.264 -0.204,0.444 -0.18,0.168 -0.432,0.168 -0.276,0 -0.456,-0.168 -0.168,-0.18 -0.168,-0.444 v -7.176 q 0,-0.264 0.18,-0.432 0.18,-0.18 0.468,-0.18 0.24,0 0.42,0.18 0.192,0.168 0.192,0.432 z"
       id="path349" />
    <path
       d="m 74.977643,25.983844 q 0.852,0 1.32,0.36 0.468,0.348 0.648,0.948 0.192,0.588 0.192,1.32 v 3.216 q 0,0.264 -0.18,0.444 -0.168,0.168 -0.42,0.168 -0.264,0 -0.432,-0.168 -0.168,-0.18 -0.168,-0.444 v -3.204 q 0,-0.432 -0.12,-0.768 -0.12,-0.348 -0.42,-0.552 -0.288,-0.216 -0.816,-0.216 -0.492,0 -0.864,0.216 -0.372,0.204 -0.588,0.552 -0.204,0.336 -0.204,0.768 v 3.204 q 0,0.264 -0.18,0.444 -0.168,0.168 -0.42,0.168 -0.264,0 -0.432,-0.168 -0.168,-0.18 -0.168,-0.444 v -5.088 q 0,-0.264 0.168,-0.432 0.168,-0.18 0.432,-0.18 0.252,0 0.42,0.18 0.18,0.168 0.18,0.432 v 0.672 l -0.216,0.12 q 0.084,-0.264 0.288,-0.528 0.216,-0.276 0.516,-0.504 0.3,-0.24 0.672,-0.372 0.372,-0.144 0.792,-0.144 z"
       id="path351" />
    <path
       d="m 82.057645,25.983844 q 0.852,0 1.32,0.36 0.468,0.348 0.648,0.948 0.192,0.588 0.192,1.32 v 3.216 q 0,0.264 -0.18,0.444 -0.168,0.168 -0.42,0.168 -0.264,0 -0.432,-0.168 -0.168,-0.18 -0.168,-0.444 v -3.204 q 0,-0.432 -0.12,-0.768 -0.12,-0.348 -0.42,-0.552 -0.288,-0.216 -0.816,-0.216 -0.492,0 -0.864,0.216 -0.372,0.204 -0.588,0.552 -0.204,0.336 -0.204,0.768 v 3.204 q 0,0.264 -0.18,0.444 -0.168,0.168 -0.42,0.168 -0.264,0 -0.432,-0.168 -0.168,-0.18 -0.168,-0.444 v -5.088 q 0,-0.264 0.168,-0.432 0.168,-0.18 0.432,-0.18 0.252,0 0.42,0.18 0.18,0.168 0.18,0.432 v 0.672 l -0.216,0.12 q 0.084,-0.264 0.288,-0.528 0.216,-0.276 0.516,-0.504 0.3,-0.24 0.672,-0.372 0.372,-0.144 0.792,-0.144 z"
       id="path353" />
    <path
       d="m 91.933647,29.283844 q 0,0.96 -0.42,1.704 -0.42,0.732 -1.14,1.152 -0.72,0.42 -1.62,0.42 -0.9,0 -1.62,-0.42 -0.72,-0.42 -1.152,-1.152 -0.42,-0.744 -0.42,-1.704 0,-0.972 0.42,-1.704 0.432,-0.744 1.152,-1.164 0.72,-0.432 1.62,-0.432 0.9,0 1.62,0.432 0.72,0.42 1.14,1.164 0.42,0.732 0.42,1.704 z m -1.2,0 q 0,-0.66 -0.264,-1.14 -0.264,-0.492 -0.72,-0.768 -0.444,-0.288 -0.996,-0.288 -0.552,0 -1.008,0.288 -0.456,0.276 -0.72,0.768 -0.264,0.48 -0.264,1.14 0,0.636 0.264,1.128 0.264,0.492 0.72,0.768 0.456,0.276 1.008,0.276 0.552,0 0.996,-0.276 0.456,-0.276 0.72,-0.768 0.264,-0.492 0.264,-1.128 z"
       id="path355" />
    <path
       d="m 93.373664,26.067844 q 0.18,0 0.336,0.096 0.168,0.096 0.24,0.288 l 1.884,4.356 -0.228,0.108 1.908,-4.452 q 0.168,-0.396 0.54,-0.384 0.24,0 0.396,0.156 0.168,0.144 0.168,0.384 0,0.072 -0.024,0.156 -0.024,0.072 -0.06,0.144 l -2.28,5.136 q -0.156,0.36 -0.516,0.384 -0.18,0.024 -0.36,-0.072 -0.168,-0.108 -0.264,-0.312 l -2.268,-5.136 q -0.024,-0.048 -0.048,-0.12 -0.024,-0.084 -0.024,-0.192 0,-0.18 0.156,-0.36 0.168,-0.18 0.444,-0.18 z"
       id="path357" />
    <path
       d="m 104.98966,26.031844 q 0.264,0 0.432,0.18 0.168,0.168 0.168,0.432 v 5.184 q 0,0.264 -0.168,0.444 -0.168,0.168 -0.432,0.168 -0.252,0 -0.432,-0.168 -0.168,-0.18 -0.168,-0.444 v -0.864 l 0.252,0.036 q 0,0.216 -0.18,0.48 -0.168,0.264 -0.468,0.516 -0.3,0.24 -0.708,0.408 -0.408,0.156 -0.876,0.156 -0.828,0 -1.488,-0.42 -0.66,-0.432 -1.043999,-1.176 -0.384,-0.744 -0.384,-1.692 0,-0.972 0.384,-1.704 0.383999,-0.744 1.031999,-1.164 0.66,-0.42 1.464,-0.42 0.516,0 0.948,0.168 0.444,0.168 0.768,0.432 0.324,0.264 0.492,0.564 0.18,0.288 0.18,0.552 l -0.372,0.036 v -1.092 q 0,-0.252 0.168,-0.432 0.18,-0.18 0.432,-0.18 z m -2.448,5.424 q 0.564,0 0.996,-0.288 0.432,-0.288 0.672,-0.78 0.24,-0.504 0.24,-1.116 0,-0.624 -0.24,-1.116 -0.24,-0.492 -0.672,-0.78 -0.432,-0.288 -0.996,-0.288 -0.552,0 -0.984,0.288 -0.42,0.288 -0.672,0.78 -0.24,0.492 -0.24,1.116 0,0.612 0.24,1.116 0.252,0.492 0.672,0.78 0.432,0.288 0.984,0.288 z"
       id="path359" />
    <path
       d="m 107.86966,32.439844 q -0.264,0 -0.432,-0.168 -0.168,-0.18 -0.168,-0.444 v -5.088 q 0,-0.264 0.168,-0.432 0.168,-0.18 0.432,-0.18 0.252,0 0.42,0.18 0.18,0.168 0.18,0.432 v 1.344 l -0.12,-0.516 q 0.096,-0.336 0.288,-0.624 0.204,-0.288 0.48,-0.504 0.276,-0.216 0.612,-0.336 0.348,-0.12 0.72,-0.12 0.312,0 0.54,0.168 0.228,0.168 0.228,0.42 0,0.324 -0.168,0.48 -0.168,0.144 -0.372,0.144 -0.18,0 -0.348,-0.072 -0.168,-0.084 -0.396,-0.084 -0.252,0 -0.516,0.132 -0.264,0.132 -0.48,0.396 -0.216,0.252 -0.348,0.6 -0.12,0.348 -0.12,0.78 v 2.88 q 0,0.264 -0.18,0.444 -0.168,0.168 -0.42,0.168 z"
       id="path361" />
    <path
       d="m 114.96166,32.559844 q -0.996,0 -1.728,-0.408 -0.732,-0.42 -1.14,-1.14 -0.396,-0.732 -0.396,-1.668 0,-1.056 0.42,-1.8 0.432,-0.756 1.116,-1.152 0.684,-0.408 1.452,-0.408 0.588,0 1.116,0.24 0.528,0.228 0.936,0.648 0.42,0.408 0.66,0.972 0.24,0.552 0.252,1.212 -0.012,0.24 -0.192,0.396 -0.18,0.156 -0.42,0.156 h -4.668 l -0.288,-1.02 h 4.512 l -0.228,0.216 v -0.3 q -0.024,-0.42 -0.276,-0.732 -0.252,-0.324 -0.624,-0.492 -0.372,-0.18 -0.78,-0.18 -0.36,0 -0.696,0.12 -0.324,0.108 -0.588,0.36 -0.252,0.252 -0.408,0.672 -0.144,0.408 -0.144,1.02 0,0.66 0.276,1.152 0.276,0.492 0.744,0.768 0.468,0.264 1.032,0.264 0.444,0 0.732,-0.084 0.288,-0.096 0.48,-0.228 0.192,-0.132 0.336,-0.252 0.18,-0.108 0.36,-0.108 0.216,0 0.36,0.156 0.144,0.144 0.144,0.348 0,0.264 -0.264,0.48 -0.324,0.312 -0.9,0.552 -0.564,0.24 -1.188,0.24 z"
       id="path363" />
    <path
       d="m 125.05367,32.559844 q -0.864,0 -1.536,-0.24 -0.672,-0.24 -1.284,-0.792 -0.132,-0.096 -0.204,-0.228 -0.06,-0.144 -0.06,-0.288 0,-0.228 0.168,-0.408 0.168,-0.18 0.42,-0.18 0.192,0 0.36,0.132 0.456,0.42 0.948,0.636 0.504,0.216 1.176,0.216 0.48,0 0.876,-0.156 0.408,-0.156 0.648,-0.42 0.24,-0.264 0.24,-0.612 0,-0.432 -0.252,-0.708 -0.24,-0.288 -0.708,-0.468 -0.456,-0.192 -1.104,-0.324 -0.6,-0.108 -1.08,-0.3 -0.468,-0.192 -0.804,-0.48 -0.336,-0.3 -0.516,-0.708 -0.18,-0.408 -0.18,-0.948 0,-0.732 0.384,-1.26 0.384,-0.528 1.044,-0.816 0.66,-0.288 1.488,-0.288 0.756,0 1.416,0.24 0.66,0.228 1.068,0.624 0.288,0.252 0.288,0.54 0,0.216 -0.18,0.408 -0.168,0.18 -0.396,0.18 -0.168,0 -0.288,-0.096 -0.192,-0.204 -0.516,-0.36 -0.324,-0.168 -0.696,-0.276 -0.36,-0.108 -0.696,-0.108 -0.54,0 -0.924,0.156 -0.384,0.144 -0.588,0.408 -0.204,0.252 -0.204,0.6 0,0.408 0.228,0.672 0.24,0.264 0.66,0.432 0.42,0.156 0.96,0.288 0.66,0.144 1.176,0.324 0.528,0.18 0.888,0.468 0.36,0.276 0.552,0.696 0.192,0.42 0.192,1.044 0,0.72 -0.408,1.26 -0.408,0.54 -1.08,0.84 -0.66,0.3 -1.476,0.3 z"
       id="path365" />
    <path
       d="m 135.40966,29.283844 q 0,0.96 -0.42,1.704 -0.42,0.732 -1.14,1.152 -0.72,0.42 -1.62,0.42 -0.9,0 -1.62,-0.42 -0.72,-0.42 -1.152,-1.152 -0.42,-0.744 -0.42,-1.704 0,-0.972 0.42,-1.704 0.432,-0.744 1.152,-1.164 0.72,-0.432 1.62,-0.432 0.9,0 1.62,0.432 0.72,0.42 1.14,1.164 0.42,0.732 0.42,1.704 z m -1.2,0 q 0,-0.66 -0.264,-1.14 -0.264,-0.492 -0.72,-0.768 -0.444,-0.288 -0.996,-0.288 -0.552,0 -1.008,0.288 -0.456,0.276 -0.72,0.768 -0.264,0.48 -0.264,1.14 0,0.636 0.264,1.128 0.264,0.492 0.72,0.768 0.456,0.276 1.008,0.276 0.552,0 0.996,-0.276 0.456,-0.276 0.72,-0.768 0.264,-0.492 0.264,-1.128 z"
       id="path367" />
    <path
       d="m 139.70567,23.571844 q 0.228,0 0.468,0.06 0.24,0.06 0.396,0.204 0.168,0.132 0.168,0.372 0,0.24 -0.144,0.396 -0.144,0.144 -0.336,0.144 -0.12,0 -0.324,-0.048 -0.204,-0.06 -0.408,-0.06 -0.276,0 -0.444,0.132 -0.168,0.12 -0.24,0.312 -0.072,0.18 -0.072,0.36 v 6.384 q 0,0.264 -0.18,0.444 -0.168,0.168 -0.42,0.168 -0.264,0 -0.432,-0.168 -0.168,-0.18 -0.168,-0.444 v -6.372 q 0,-0.828 0.54,-1.356 0.552,-0.528 1.596,-0.528 z m 0.24,2.664 q 0.24,0 0.396,0.156 0.156,0.156 0.156,0.396 0,0.24 -0.156,0.396 -0.156,0.156 -0.396,0.156 h -3.108 q -0.228,0 -0.396,-0.156 -0.156,-0.156 -0.156,-0.396 0,-0.24 0.156,-0.396 0.168,-0.156 0.396,-0.156 z"
       id="path369" />
    <path
       d="m 141.64966,26.199844 h 2.82 q 0.24,0 0.396,0.168 0.168,0.156 0.168,0.396 0,0.228 -0.168,0.384 -0.156,0.156 -0.396,0.156 h -2.82 q -0.24,0 -0.408,-0.156 -0.156,-0.168 -0.156,-0.396 0,-0.24 0.156,-0.396 0.168,-0.156 0.408,-0.156 z m 1.26,-1.56 q 0.264,0 0.432,0.18 0.168,0.168 0.168,0.432 v 5.568 q 0,0.216 0.072,0.348 0.072,0.132 0.192,0.18 0.132,0.048 0.264,0.048 0.132,0 0.228,-0.048 0.108,-0.048 0.252,-0.048 0.144,0 0.264,0.132 0.12,0.132 0.12,0.36 0,0.288 -0.312,0.468 -0.312,0.18 -0.672,0.18 -0.204,0 -0.48,-0.036 -0.276,-0.036 -0.54,-0.18 -0.252,-0.144 -0.42,-0.456 -0.168,-0.324 -0.168,-0.9 v -5.616 q 0,-0.264 0.168,-0.432 0.18,-0.18 0.432,-0.18 z"
       id="path371" />
    <path
       d="m 154.20167,26.067844 q 0.228,0 0.396,0.18 0.18,0.168 0.18,0.444 0,0.06 -0.012,0.12 -0.012,0.06 -0.036,0.108 l -1.836,5.136 q -0.072,0.204 -0.252,0.312 -0.18,0.096 -0.372,0.072 -0.348,-0.024 -0.516,-0.384 l -1.356,-3.6 0.276,0.024 -1.248,3.576 q -0.168,0.36 -0.516,0.384 -0.18,0.024 -0.372,-0.072 -0.18,-0.108 -0.252,-0.312 l -1.848,-5.136 q -0.048,-0.108 -0.048,-0.228 0,-0.252 0.156,-0.432 0.168,-0.192 0.444,-0.192 0.192,0 0.336,0.096 0.156,0.096 0.216,0.288 l 1.536,4.332 -0.276,-0.024 1.248,-3.276 q 0.156,-0.372 0.552,-0.372 0.216,0 0.336,0.096 0.12,0.096 0.192,0.276 l 1.272,3.288 -0.324,0.036 1.548,-4.356 q 0.12,-0.384 0.576,-0.384 z"
       id="path373" />
    <path
       d="m 161.22167,26.031844 q 0.264,0 0.432,0.18 0.168,0.168 0.168,0.432 v 5.184 q 0,0.264 -0.168,0.444 -0.168,0.168 -0.432,0.168 -0.252,0 -0.432,-0.168 -0.168,-0.18 -0.168,-0.444 v -0.864 l 0.252,0.036 q 0,0.216 -0.18,0.48 -0.168,0.264 -0.468,0.516 -0.3,0.24 -0.708,0.408 -0.408,0.156 -0.876,0.156 -0.828,0 -1.488,-0.42 -0.66,-0.432 -1.044,-1.176 -0.384,-0.744 -0.384,-1.692 0,-0.972 0.384,-1.704 0.384,-0.744 1.032,-1.164 0.66,-0.42 1.464,-0.42 0.516,0 0.948,0.168 0.444,0.168 0.768,0.432 0.324,0.264 0.492,0.564 0.18,0.288 0.18,0.552 l -0.372,0.036 v -1.092 q 0,-0.252 0.168,-0.432 0.18,-0.18 0.432,-0.18 z m -2.448,5.424 q 0.564,0 0.996,-0.288 0.432,-0.288 0.672,-0.78 0.24,-0.504 0.24,-1.116 0,-0.624 -0.24,-1.116 -0.24,-0.492 -0.672,-0.78 -0.432,-0.288 -0.996,-0.288 -0.552,0 -0.984,0.288 -0.42,0.288 -0.672,0.78 -0.24,0.492 -0.24,1.116 0,0.612 0.24,1.116 0.252,0.492 0.672,0.78 0.432,0.288 0.984,0.288 z"
       id="path375" />
    <path
       d="m 164.10167,32.439844 q -0.264,0 -0.432,-0.168 -0.168,-0.18 -0.168,-0.444 v -5.088 q 0,-0.264 0.168,-0.432 0.168,-0.18 0.432,-0.18 0.252,0 0.42,0.18 0.18,0.168 0.18,0.432 v 1.344 l -0.12,-0.516 q 0.096,-0.336 0.288,-0.624 0.204,-0.288 0.48,-0.504 0.276,-0.216 0.612,-0.336 0.348,-0.12 0.72,-0.12 0.312,0 0.54,0.168 0.228,0.168 0.228,0.42 0,0.324 -0.168,0.48 -0.168,0.144 -0.372,0.144 -0.18,0 -0.348,-0.072 -0.168,-0.084 -0.396,-0.084 -0.252,0 -0.516,0.132 -0.264,0.132 -0.48,0.396 -0.216,0.252 -0.348,0.6 -0.12,0.348 -0.12,0.78 v 2.88 q 0,0.264 -0.18,0.444 -0.168,0.168 -0.42,0.168 z"
       id="path377" />
    <path
       d="m 171.19367,32.559844 q -0.996,0 -1.728,-0.408 -0.732,-0.42 -1.14,-1.14 -0.396,-0.732 -0.396,-1.668 0,-1.056 0.42,-1.8 0.432,-0.756 1.116,-1.152 0.684,-0.408 1.452,-0.408 0.588,0 1.116,0.24 0.528,0.228 0.936,0.648 0.42,0.408 0.66,0.972 0.24,0.552 0.252,1.212 -0.012,0.24 -0.192,0.396 -0.18,0.156 -0.42,0.156 h -4.668 l -0.288,-1.02 h 4.512 l -0.228,0.216 v -0.3 q -0.024,-0.42 -0.276,-0.732 -0.252,-0.324 -0.624,-0.492 -0.372,-0.18 -0.78,-0.18 -0.36,0 -0.696,0.12 -0.324,0.108 -0.588,0.36 -0.252,0.252 -0.408,0.672 -0.144,0.408 -0.144,1.02 0,0.66 0.276,1.152 0.276,0.492 0.744,0.768 0.468,0.264 1.032,0.264 0.444,0 0.732,-0.084 0.288,-0.096 0.48,-0.228 0.192,-0.132 0.336,-0.252 0.18,-0.108 0.36,-0.108 0.216,0 0.36,0.156 0.144,0.144 0.144,0.348 0,0.264 -0.264,0.48 -0.324,0.312 -0.9,0.552 -0.564,0.24 -1.188,0.24 z"
       id="path379" />
  </g>
</svg>
