<?xml version="1.0" encoding="UTF-8" standalone="no"?>
<svg
   viewBox="0 0 145.14852 30.389901"
   version="1.1"
   id="svg16"
   sodipodi:docname="innovare-logo.svg"
   width="145.14853"
   height="30.389902"
   inkscape:version="1.2.2 (b0a8486541, 2022-12-01)"
   xmlns:inkscape="http://www.inkscape.org/namespaces/inkscape"
   xmlns:sodipodi="http://sodipodi.sourceforge.net/DTD/sodipodi-0.dtd"
   xmlns="http://www.w3.org/2000/svg"
   xmlns:svg="http://www.w3.org/2000/svg">
  <sodipodi:namedview
     id="namedview18"
     pagecolor="#505050"
     bordercolor="#ffffff"
     borderopacity="1"
     inkscape:showpageshadow="0"
     inkscape:pageopacity="0"
     inkscape:pagecheckerboard="1"
     inkscape:deskcolor="#505050"
     showgrid="false"
     inkscape:zoom="3.3579965"
     inkscape:cx="33.204323"
     inkscape:cy="25.759408"
     inkscape:window-width="1300"
     inkscape:window-height="707"
     inkscape:window-x="0"
     inkscape:window-y="0"
     inkscape:window-maximized="1"
     inkscape:current-layer="svg16" />
  <defs
     id="defs4">
    <rect
       x="67.682426"
       y="21.338989"
       width="114.38996"
       height="39.157928"
       id="rect232" />
    <style
       id="style2">.cls-1{fill:#fff;stroke:#e00505;stroke-miterlimit:10;stroke-width:3px}.cls-2{fill:#d10909}</style>
  </defs>
  <g
     id="Capa_7"
     data-name="Capa 7"
     transform="scale(0.19217087)">
    <circle
       class="cls-1"
       cx="79.07"
       cy="79.07"
       r="77.57"
       id="circle6" />
    <circle
       class="cls-1"
       cx="79.07"
       cy="79.07"
       r="75.300003"
       id="circle8" />
  </g>
  <g
     id="Capa_6"
     data-name="Capa 6"
     transform="scale(0.19217087)">
    <path
       class="cls-2"
       d="m 76.94,37.08 h 3.77 v 89.98 h -3.77 z m 9.36,44.98 h 47.22 v 3.77 H 86.3 Z m 0,8.87 h 47.22 V 94.7 H 86.3 Z m 0,8.93 h 47.22 v 3.77 H 86.3 Z"
       id="path11" />
    <path
       class="cls-2"
       d="M 141,69.92 H 102.66 V 90.31 H 141 Z M 137.28,87.2 H 105.56 V 73.65 h 31.72 z m -58.34,26.05 a 6.64,6.64 0 0 0 -1.42,0.15 l -4.66,-6.65 a 6.76,6.76 0 0 0 -5.27,-11 6.52,6.52 0 0 0 -2.18,0.37 l -5.18,-7.39 a 6.73,6.73 0 0 0 0,-8.93 l 4.53,-6.86 a 6.67,6.67 0 0 0 2.58,0.51 6.85,6.85 0 0 0 1.71,-0.23 l 4.76,6.24 a 6.76,6.76 0 1 0 4.76,-2 7.15,7.15 0 0 0 -1.4,0.14 L 72.31,71.22 A 6.76,6.76 0 1 0 61.8,70.53 l -4.75,7.2 A 6.59,6.59 0 0 0 55.16,77.46 6.76,6.76 0 0 0 50,88.58 l -4.6,7 a 6.55,6.55 0 0 0 -1.4,-0.17 6.78,6.78 0 1 0 4.74,1.94 l 4.39,-6.66 a 6.58,6.58 0 0 0 2.09,0.33 6.81,6.81 0 0 0 1.78,-0.26 l 5.27,7.52 a 6.74,6.74 0 0 0 -0.11,8.31 l -4.6,7 a 6.61,6.61 0 0 0 -2.05,-0.32 6.78,6.78 0 1 0 5.18,2.42 l 4.5,-6.82 a 6.71,6.71 0 0 0 4.53,0.07 l 4.42,6.29 a 6.77,6.77 0 1 0 4.76,-2 z m -0.36,-31.8 a 2.81,2.81 0 1 1 -2.81,2.81 2.81,2.81 0 0 1 2.81,-2.81 z M 67.35,63.88 a 2.81,2.81 0 0 1 0,5.61 2.67,2.67 0 0 1 -0.64,-0.08 L 65.1,68.35 a 2.77,2.77 0 0 1 -0.56,-1.67 2.8,2.8 0 0 1 2.81,-2.8 z M 44,105 A 2.81,2.81 0 1 1 46.81,102.19 2.8,2.8 0 0 1 44,105 Z M 55.17,87.07 A 2.81,2.81 0 1 1 58,84.26 2.81,2.81 0 0 1 55.17,87.07 Z m 0.38,35.75 a 2.81,2.81 0 1 1 2.81,-2.82 2.8,2.8 0 0 1 -2.81,2.82 z m 12,-17.5 a 2.81,2.81 0 1 1 2.81,-2.8 2.8,2.8 0 0 1 -2.77,2.8 z m 11.35,17.5 a 2.81,2.81 0 1 1 2.85,-2.82 2.81,2.81 0 0 1 -2.81,2.82 z"
       transform="translate(-12.85,-14.11)"
       id="path13" />
  </g>
  <text
     xml:space="preserve"
     id="text230"
     style="font-style:normal;font-variant:normal;font-weight:normal;font-stretch:normal;font-size:12px;font-family:Quicksand;-inkscape-font-specification:'Quicksand, @wght=600';font-variant-ligatures:normal;font-variant-caps:normal;font-variant-numeric:normal;font-variant-east-asian:normal;font-variation-settings:'wght' 600;white-space:pre;shape-inside:url(#rect232);fill:#000000"
     transform="matrix(1.0437011,0,0,1.0437011,-36.33196,-13.813804)"><tspan
       x="67.681641"
       y="32.439844"
       id="tspan315">Innovare Software</tspan></text>
</svg>
