<svg xmlns="http://www.w3.org/2000/svg" viewBox="0 0 158.13 158.13"><defs><style>.cls-1{fill:#fff;stroke:#e00505;stroke-miterlimit:10;stroke-width:3px}.cls-2{fill:#d10909}</style></defs><g id="Capa_7" data-name="Capa 7"><circle class="cls-1" cx="79.07" cy="79.07" r="77.57"/><circle class="cls-1" cx="79.07" cy="79.07" r="75.3"/></g><g id="Capa_6" data-name="Capa 6"><path class="cls-2" d="M76.94 37.08h3.77v89.98h-3.77zm9.36 44.98h47.22v3.77H86.3zm0 8.87h47.22v3.77H86.3zm0 8.93h47.22v3.77H86.3z"/><path class="cls-2" d="M141 69.92h-38.34v20.39H141zm-3.72 17.28h-31.72V73.65h31.72zm-58.34 26.05a6.64 6.64 0 00-1.42.15l-4.66-6.65a6.76 6.76 0 00-5.27-11 6.52 6.52 0 00-2.18.37l-5.18-7.39a6.73 6.73 0 000-8.93l4.53-6.86a6.67 6.67 0 002.58.51 6.85 6.85 0 001.71-.23l4.76 6.24a6.76 6.76 0 104.76-2 7.15 7.15 0 00-1.4.14l-4.86-6.38a6.76 6.76 0 10-10.51-.69l-4.75 7.2a6.59 6.59 0 00-1.89-.27A6.76 6.76 0 0050 88.58l-4.6 7a6.55 6.55 0 00-1.4-.17 6.78 6.78 0 104.74 1.94l4.39-6.66a6.58 6.58 0 002.09.33 6.81 6.81 0 001.78-.26l5.27 7.52a6.74 6.74 0 00-.11 8.31l-4.6 7a6.61 6.61 0 00-2.05-.32 6.78 6.78 0 105.18 2.42l4.5-6.82a6.71 6.71 0 004.53.07l4.42 6.29a6.77 6.77 0 104.76-2zm-.36-31.8a2.81 2.81 0 11-2.81 2.81 2.81 2.81 0 012.81-2.81zM67.35 63.88a2.81 2.81 0 010 5.61 2.67 2.67 0 01-.64-.08l-1.61-1.06a2.77 2.77 0 01-.56-1.67 2.8 2.8 0 012.81-2.8zM44 105a2.81 2.81 0 112.81-2.81A2.8 2.8 0 0144 105zm11.17-17.93A2.81 2.81 0 1158 84.26a2.81 2.81 0 01-2.83 2.81zm.38 35.75a2.81 2.81 0 112.81-2.82 2.8 2.8 0 01-2.81 2.82zm12-17.5a2.81 2.81 0 112.81-2.8 2.8 2.8 0 01-2.77 2.8zm11.35 17.5a2.81 2.81 0 112.85-2.82 2.81 2.81 0 01-2.81 2.82z" transform="translate(-12.85 -14.11)"/></g></svg>